<mxfile host="app.diagrams.net" modified="2023-03-31T08:40:31.461Z" agent="Mozilla/5.0 (Macintosh; Intel Mac OS X 10.15; rv:109.0) Gecko/20100101 Firefox/111.0" version="21.1.2" etag="swFt22x4q4NuJv2VHA7n" type="github">
  <diagram name="第 1 页" id="YTbGAlts-inAoSYMtO-r">
    <mxGraphModel>
      <root>
        <mxCell id="0" />
        <mxCell id="1" parent="0" />
      </root>
    </mxGraphModel>
  </diagram>
</mxfile>
